v 782.7999878 25.39999962 609.6000366
vn 0.0006287463475 0.761064887 0.6486754417
v 782.7999878 3.732723765e-014 609.6000366
vn 0.0001544582337 -0.7753522396 0.6315290332
v 787.492981 3.730461849e-014 609.2306519
vn 0.1087019667 -0.5531595945 0.8259530067
v 787.492981 25.39999962 609.2306519
vn 0.151855126 0.5531576276 0.8191194534
v 792.0704956 3.72373268e-014 608.1317139
vn 0.2494594455 -0.4777945876 0.8423077464
v 792.0704956 25.39999962 608.1317139
vn 0.2932848036 0.4777938128 0.828068316
v 796.4197388 3.712701262e-014 606.3301392
vn 0.3434201479 -0.6029590368 0.7200714946
v 796.4197388 25.39999962 606.3301392
vn 0.3806984425 0.6029623747 0.7010742426
v 800.4335327 3.697640338e-014 603.8704834
vn 0.5663375854 -0.009689758532 0.8241164088
v 800.4335327 25.39999962 603.8704834
vn 0.6087659001 0.009689740837 0.7932907343
v 804.0131836 3.678919894e-014 600.8132324
vn 0.6878073215 -0.03849725798 0.7248717546
v 804.0131836 25.39999962 600.8132324
vn 0.7248716354 0.03849701956 0.6878074408
v 807.0704956 3.657000714e-014 597.2335205
vn 0.7904214859 -0.08547666669 0.606570363
v 807.0704956 25.39999962 597.2335205
vn 0.82113415 0.08547714353 0.5642981529
v 809.5302124 3.632423206e-014 593.2197266
vn 0.8690273166 -0.148657918 0.4719029069
v 809.5302124 25.39999962 593.2197266
vn 0.8925772309 0.148658067 0.425683707
v 811.331665 3.605792151e-014 588.8705444
vn 0.9185326099 -0.2246558815 0.3253115118
v 811.331665 25.39999962 588.8705444
vn 0.9343258739 0.2246547788 0.27670452
v 812.430603 3.577762815e-014 584.2930298
vn 0.9352478981 -0.3086254001 0.1733832061
v 812.430603 25.39999962 584.2930298
vn 0.9430516362 0.3086256385 0.1241119951
v 812.7999878 3.549026375e-014 579.5999756
vn 0.03009991162 -0.9995468855 3.978077075e-005
v 812.7999878 25.39999962 579.5999756
vn 0.02979035117 0.9995561838 9.968450286e-006
v 812.7999878 25.39999962 30.00000763
vn 0.03009335697 0.9995470643 -3.977210872e-005
v 812.7999878 1.836970729e-015 30.00000763
vn 0.02978710085 -0.9995562434 -9.96736253e-006
v 812.430603 1.54960559e-015 25.30698013
vn 0.9878221154 -0.08547666669 -0.1300047636
v 812.430603 25.39999962 25.30698013
vn 0.979647696 0.08547662199 -0.1816153824
v 811.331665 1.269314235e-015 20.72947502
vn 0.9581242204 -0.03849764541 -0.2837531865
v 811.331665 25.39999962 20.72947502
vn 0.9419292212 0.03849771991 -0.3335973918
v 809.5302124 1.003002418e-015 16.38027191
vn 0.9025651217 -0.009691379964 -0.4304442406
v 809.5302124 25.39999962 16.38027191
vn 0.8787522912 0.009691359475 -0.4771797359
v 807.0704956 7.57226279e-016 12.36644363
vn 0.809835732 -0.1855726838 -0.5565328598
v 807.0704956 25.39999962 12.36644363
vn 0.779542923 0.1855727583 -0.5982270241
v 804.0131836 5.380358575e-016 8.786792755
vn 0.7068644166 -0.2246527672 -0.6707263589
v 804.0131836 25.39999962 8.786792755
vn 0.6707246304 0.2246528268 -0.7068660259
v 800.4335327 3.508303e-016 5.729493618
vn 0.5790803432 -0.3086259663 -0.754596591
v 800.4335327 25.39999962 5.729493618
vn 0.5387201905 0.30862692 -0.7839196324
v 796.4197388 2.002195173e-016 3.26983285
vn 0.438426137 -0.3948581815 -0.8073843718
v 796.4197388 25.39999962 3.26983285
vn 0.3954902291 0.3948560357 -0.8292624354
v 792.0704956 8.99071806e-017 1.468295693
vn 0.2932798266 -0.4777951539 -0.8280692697
v 792.0704956 25.39999962 1.468295693
vn 0.2494588345 0.4777952731 -0.842307508
v 787.492981 2.261504681e-017 0.3693317473
vn 0.1518550813 -0.5531583428 -0.8191189766
v 787.492981 25.39999962 0.3693317473
vn 0.1086980179 0.5531604886 -0.8259528875
v 782.7999878 -8.175397225e-023 -1.335143679e-006
vn 0.0006286711432 -0.761064291 -0.648676157
v 782.7999878 25.39999962 -1.335143679e-006
vn 0.0001544397819 0.7753516436 -0.6315297484
v 30.00000954 25.39999962 -1.335143679e-006
vn -0.000628671085 0.761064291 -0.648676157
v 30.00000954 -8.175397225e-023 -1.335143679e-006
vn -0.0001544397674 -0.7753516436 -0.6315297484
v 25.30698204 2.261504681e-017 0.3693317473
vn -0.08804103732 -0.7380377054 -0.6689910889
v 25.30698204 25.39999962 0.3693317473
vn -0.1229969487 0.7380373478 -0.6634550691
v 20.72947502 8.99071806e-017 1.468295693
vn -0.2701085806 -0.3086259961 -0.9120259881
v 20.72947502 25.39999962 1.468295693
vn -0.3175572157 0.3086261153 -0.8966087699
v 16.38027382 2.002195173e-016 3.26983285
vn -0.4194667935 -0.2246509492 -0.8795337081
v 16.38027382 25.39999962 3.26983285
vn -0.4650036693 0.2246512175 -0.8563313484
v 12.36644459 3.508303e-016 5.729493618
vn -0.5565283298 -0.1855734587 -0.8098387122
v 12.36644459 25.39999962 5.729493618
vn -0.5982241631 0.1855733544 -0.7795450091
v 8.786793709 5.380358575e-016 8.786792755
vn -0.6882872581 -0.009690534323 -0.7253735065
v 8.786793709 25.39999962 8.786792755
vn -0.7253735065 0.009690534323 -0.6882872581
v 5.729495049 7.57226279e-016 12.36644363
vn -0.7927356362 -0.0384959653 -0.6083487868
v 5.729495049 25.39999962 12.36644363
vn -0.8235411048 0.03849594295 -0.5659489036
v 3.269785881 1.003002418e-015 16.38027191
vn -0.8755767941 -0.0854780674 -0.4754564166
v 3.269785881 25.39999962 16.38027191
vn -0.8993022442 0.085478127 -0.4288926721
v 1.468297005 1.269314235e-015 20.72947502
vn -0.765958488 -0.5828502774 -0.2712805867
v 1.468297005 25.39999962 20.72947502
vn -0.7791287899 0.5828498006 -0.2307476103
v 0.3693330586 1.54960559e-015 25.30698013
vn -0.8637533784 -0.4777954817 -0.1601299495
v 0.3693330586 25.39999962 25.30698013
vn -0.8709610105 0.4777959287 -0.1146208271
v 0 1.836970729e-015 30.00000763
vn -0.03010972217 -0.9995465875 -3.978893801e-005
v 0 25.39999962 30.00000763
vn -0.02979521826 0.999556005 -9.96887502e-006
v 0 25.39999962 579.5999756
vn -0.03009991162 0.9995468855 3.977597225e-005
v 0 3.549026375e-014 579.5999756
vn -0.02979035117 -0.9995561838 9.967247024e-006
v 0.3693330586 3.577762815e-014 584.2930298
vn -0.9430512786 -0.3086286485 0.1241074502
v 0.3693330586 25.39999962 584.2930298
vn -0.935247004 0.3086282611 0.1733830869
v 1.468297005 3.605792151e-014 588.8705444
vn -0.9343247414 -0.2246528864 0.276709944
v 1.468297005 25.39999962 588.8705444
vn -0.9185308814 0.224653855 0.3253177702
v 3.269785881 3.632423206e-014 593.2197266
vn -0.8925756216 -0.1486571729 0.4256874323
v 3.269785881 25.39999962 593.2197266
vn -0.8690269589 0.1486572474 0.4719037414
v 5.729495049 3.657000714e-014 597.2335205
vn -0.8211351633 -0.08547838777 0.5642964244
v 5.729495049 25.39999962 597.2335205
vn -0.7904225588 0.08547791839 0.6065688133
v 8.786793709 3.678919894e-014 600.8132324
vn -0.7248725891 -0.03849800304 0.6878064275
v 8.786793709 25.39999962 600.8132324
vn -0.6878080368 0.03849822655 0.7248710394
v 12.36644459 3.697640338e-014 603.8704834
vn -0.6087647676 -0.009690114297 0.7932916284
v 12.36644459 25.39999962 603.8704834
vn -0.5663349628 0.009690104984 0.824118197
v 16.38027382 3.712701262e-014 606.3301392
vn -0.3806976974 -0.6029615402 0.7010753751
v 16.38027382 25.39999962 606.3301392
vn -0.3434206247 0.6029602289 0.7200703025
v 20.72947502 3.72373268e-014 608.1317139
vn -0.2932870686 -0.4777928889 0.828068018
v 20.72947502 25.39999962 608.1317139
vn -0.2494612187 0.4777933955 0.8423078656
v 25.30698204 3.730461849e-014 609.2306519
vn -0.1518551558 -0.5531587005 0.8191187382
v 25.30698204 25.39999962 609.2306519
vn -0.1087016463 0.5531588793 0.8259534836
v 30.00000954 3.732723765e-014 609.6000366
vn -0.0006287462893 -0.761064887 0.6486754417
v 30.00000954 25.39999962 609.6000366
vn -0.0001544582337 0.7753522396 0.6315290332
# mm_gid 0
g mmGroup0
f 1//1 2//2 3//3 
f 1//1 3//3 4//4 
f 4//4 3//3 5//5 
f 4//4 5//5 6//6 
f 6//6 5//5 7//7 
f 6//6 7//7 8//8 
f 8//8 7//7 9//9 
f 8//8 9//9 10//10 
f 10//10 9//9 11//11 
f 10//10 11//11 12//12 
f 12//12 11//11 13//13 
f 12//12 13//13 14//14 
f 14//14 13//13 15//15 
f 14//14 15//15 16//16 
f 16//16 15//15 17//17 
f 16//16 17//17 18//18 
f 18//18 17//17 19//19 
f 18//18 19//19 20//20 
f 20//20 19//19 21//21 
f 20//20 21//21 22//22 
f 23//23 22//22 24//24 
f 24//24 22//22 21//21 
f 23//23 24//24 25//25 
f 23//23 25//25 26//26 
f 26//26 25//25 27//27 
f 26//26 27//27 28//28 
f 28//28 27//27 29//29 
f 28//28 29//29 30//30 
f 30//30 29//29 31//31 
f 30//30 31//31 32//32 
f 32//32 31//31 33//33 
f 32//32 33//33 34//34 
f 34//34 33//33 35//35 
f 34//34 35//35 36//36 
f 36//36 35//35 37//37 
f 36//36 37//37 38//38 
f 38//38 37//37 39//39 
f 38//38 39//39 40//40 
f 40//40 39//39 41//41 
f 40//40 41//41 42//42 
f 42//42 41//41 43//43 
f 42//42 43//43 44//44 
f 45//45 44//44 46//46 
f 46//46 44//44 43//43 
f 45//45 46//46 47//47 
f 45//45 47//47 48//48 
f 48//48 47//47 49//49 
f 48//48 49//49 50//50 
f 50//50 49//49 51//51 
f 50//50 51//51 52//52 
f 52//52 51//51 53//53 
f 52//52 53//53 54//54 
f 54//54 53//53 55//55 
f 54//54 55//55 56//56 
f 56//56 55//55 57//57 
f 56//56 57//57 58//58 
f 58//58 57//57 59//59 
f 58//58 59//59 60//60 
f 60//60 59//59 61//61 
f 60//60 61//61 62//62 
f 62//62 61//61 63//63 
f 62//62 63//63 64//64 
f 64//64 63//63 65//65 
f 64//64 65//65 66//66 
f 67//67 66//66 68//68 
f 68//68 66//66 65//65 
f 67//67 68//68 69//69 
f 67//67 69//69 70//70 
f 70//70 69//69 71//71 
f 70//70 71//71 72//72 
f 72//72 71//71 73//73 
f 72//72 73//73 74//74 
f 74//74 73//73 75//75 
f 74//74 75//75 76//76 
f 76//76 75//75 77//77 
f 76//76 77//77 78//78 
f 78//78 77//77 79//79 
f 78//78 79//79 80//80 
f 80//80 79//79 81//81 
f 80//80 81//81 82//82 
f 82//82 81//81 83//83 
f 82//82 83//83 84//84 
f 84//84 83//83 85//85 
f 84//84 85//85 86//86 
f 86//86 85//85 87//87 
f 86//86 87//87 88//88 
f 1//1 88//88 2//2 
f 2//2 88//88 87//87 
f 42//42 44//44 23//23 
f 23//23 66//66 22//22 
f 22//22 66//66 67//67 
f 34//34 36//36 23//23 
f 23//23 44//44 66//66 
f 66//66 44//44 45//45 
f 66//66 45//45 48//48 
f 28//28 30//30 32//32 
f 4//4 6//6 22//22 
f 22//22 6//6 8//8 
f 22//22 8//8 20//20 
f 36//36 38//38 23//23 
f 23//23 38//38 40//40 
f 23//23 40//40 42//42 
f 72//72 74//74 82//82 
f 84//84 86//86 67//67 
f 67//67 86//86 88//88 
f 67//67 88//88 22//22 
f 22//22 88//88 1//1 
f 22//22 1//1 4//4 
f 34//34 23//23 32//32 
f 32//32 23//23 26//26 
f 32//32 26//26 28//28 
f 54//54 56//56 58//58 
f 14//14 8//8 12//12 
f 12//12 8//8 10//10 
f 14//14 16//16 8//8 
f 8//8 16//16 18//18 
f 8//8 18//18 20//20 
f 50//50 62//62 48//48 
f 48//48 62//62 64//64 
f 48//48 64//64 66//66 
f 50//50 52//52 62//62 
f 62//62 52//52 54//54 
f 62//62 54//54 60//60 
f 60//60 54//54 58//58 
f 84//84 67//67 82//82 
f 82//82 67//67 70//70 
f 82//82 70//70 72//72 
f 74//74 76//76 82//82 
f 82//82 76//76 78//78 
f 82//82 78//78 80//80 
f 47//47 46//46 65//65 
f 65//65 24//24 68//68 
f 68//68 24//24 21//21 
f 65//65 46//46 24//24 
f 24//24 46//46 43//43 
f 24//24 43//43 41//41 
f 21//21 7//7 5//5 
f 87//87 68//68 2//2 
f 2//2 68//68 21//21 
f 2//2 21//21 3//3 
f 3//3 21//21 5//5 
f 61//61 53//53 51//51 
f 21//21 19//19 7//7 
f 7//7 19//19 17//17 
f 7//7 17//17 15//15 
f 15//15 13//13 7//7 
f 7//7 13//13 11//11 
f 7//7 11//11 9//9 
f 87//87 85//85 68//68 
f 68//68 85//85 83//83 
f 68//68 83//83 81//81 
f 61//61 59//59 53//53 
f 53//53 59//59 57//57 
f 53//53 57//57 55//55 
f 65//65 63//63 47//47 
f 47//47 63//63 61//61 
f 47//47 61//61 49//49 
f 49//49 61//61 51//51 
f 41//41 39//39 24//24 
f 24//24 39//39 37//37 
f 24//24 37//37 35//35 
f 31//31 29//29 27//27 
f 79//79 77//77 81//81 
f 81//81 77//77 75//75 
f 81//81 75//75 73//73 
f 73//73 71//71 81//81 
f 81//81 71//71 69//69 
f 81//81 69//69 68//68 
f 35//35 33//33 24//24 
f 24//24 33//33 31//31 
f 24//24 31//31 25//25 
f 25//25 31//31 27//27 
