v 35.07066345 43.01327133 30.4162693
vn 0.5773503184 0.794654429 0.1875924021
v 26.18036461 43.01327896 36.87545776
vn 3.353880018e-008 0.794654429 0.6070621014
v 34.0665741 37.48524475 38.38207626
vn 0.5257313251 0.4472135603 0.7236066461
v 26.18036652 45.77729416 27.5276413
vn 3.104892983e-007 1 1.008840371e-007
v 17.2900753 43.01327896 30.41627121
vn -0.5773503184 0.794654429 0.1875925362
v 20.68585968 43.01327896 19.96510124
vn -0.3568221331 0.7946544886 -0.4911234379
v 13.42020893 37.48524094 23.38161659
vn -0.8506509066 0.4472134709 -0.2763930559
v 17.29007149 18.54039001 24.63900757
vn -0.5773505569 -0.7946543694 -0.1875919402
v 26.18036652 18.54039001 18.17982864
vn -5.426702199e-009 -0.7946544886 -0.6070619822
v 26.18036842 15.77637386 27.52763939
vn -4.980565791e-007 -1 7.671326898e-007
v 18.29415703 24.06842613 16.67320442
vn -0.5257316828 -0.4472133815 -0.7236065269
v 35.07066345 18.54039192 24.63900757
vn 0.577350378 -0.794654429 -0.187592417
v 31.67486954 18.54039001 35.09017944
vn 0.3568215966 -0.7946545482 0.4911236763
v 38.94051743 24.06842422 31.673666
vn 0.8506507277 -0.4472136199 0.2763933837
v 35.07065964 27.88820457 39.76408386
vn 0.577350378 -0.1875925064 0.794654429
v 17.29007149 33.66547012 15.29119587
vn -0.5773504376 0.1875923723 -0.7946543694
v 11.79557419 27.8882122 22.85373878
vn -0.9341723323 -0.1875926107 -0.3035309911
v 40.56517029 33.66546631 32.2015419
vn 0.9341723323 0.1875924915 0.3035310507
v 13.42021275 24.06842613 31.673666
vn -0.8506505489 -0.4472140372 0.2763931751
v 38.94051743 37.48524475 23.38161469
vn 0.8506506681 0.4472137988 -0.2763933539
v 31.67486954 43.01327896 19.96510124
vn 0.3568221331 0.7946544886 -0.4911234677
v 20.68586731 18.5404129 35.09017181
vn -0.3568221033 -0.794654429 0.4911234975
v 26.18036652 37.48524094 14.11082077
vn 6.942750019e-008 0.4472135603 -0.8944271803
v 26.18036842 24.06842613 40.94445801
vn -2.208035141e-007 -0.447214067 0.8944269419
v 26.18037033 33.66546249 42.65271378
vn -5.62242839e-008 0.1875923276 0.982246995
v 26.18036652 27.88820076 12.4025631
vn -3.146602268e-008 -0.1875924617 -0.9822469354
v 34.0665741 24.06842422 16.67320442
vn 0.5257311463 -0.4472135603 -0.7236067653
v 18.29415703 37.48524094 38.38207245
vn -0.5257310867 0.4472134411 0.7236069441
v 35.07065964 33.66546631 15.29119587
vn 0.5773501992 0.1875925809 -0.7946544886
v 17.2900753 27.88820076 39.76408768
vn -0.5773499608 -0.1875928938 0.7946546078
v 40.56517029 27.88820457 22.85373306
vn 0.9341723323 -0.1875924319 -0.3035311103
v 11.7955637 33.66546631 32.20154953
vn -0.9341723323 0.1875924468 0.3035310805
# mm_gid 0
g mmGroup0
f 1//1 2//2 3//3 
f 1//1 4//4 2//2 
f 4//4 5//5 2//2 
f 4//4 6//6 5//5 
f 6//6 7//7 5//5 
f 8//8 9//9 10//10 
f 11//11 9//9 8//8 
f 9//9 12//12 10//10 
f 10//10 12//12 13//13 
f 13//13 12//12 14//14 
f 13//13 14//14 15//15 
f 6//6 16//16 7//7 
f 17//17 7//7 16//16 
f 14//14 18//18 15//15 
f 15//15 18//18 3//3 
f 16//16 11//11 17//17 
f 8//8 17//17 11//11 
f 18//18 1//1 3//3 
f 8//8 19//19 17//17 
f 18//18 20//20 1//1 
f 20//20 21//21 1//1 
f 8//8 22//22 19//19 
f 8//8 10//10 22//22 
f 1//1 21//21 4//4 
f 4//4 21//21 6//6 
f 10//10 13//13 22//22 
f 6//6 21//21 23//23 
f 13//13 24//24 22//22 
f 13//13 15//15 24//24 
f 6//6 23//23 16//16 
f 24//24 15//15 25//25 
f 23//23 26//26 16//16 
f 26//26 11//11 16//16 
f 15//15 3//3 25//25 
f 3//3 2//2 25//25 
f 11//11 26//26 9//9 
f 26//26 27//27 9//9 
f 25//25 2//2 28//28 
f 2//2 5//5 28//28 
f 27//27 12//12 9//9 
f 21//21 29//29 23//23 
f 22//22 24//24 30//30 
f 22//22 30//30 19//19 
f 20//20 29//29 21//21 
f 18//18 31//31 20//20 
f 17//17 19//19 32//32 
f 17//17 32//32 7//7 
f 14//14 31//31 18//18 
f 12//12 31//31 14//14 
f 7//7 32//32 5//5 
f 12//12 27//27 31//31 
f 5//5 32//32 28//28 
f 32//32 30//30 28//28 
f 27//27 29//29 31//31 
f 31//31 29//29 20//20 
f 32//32 19//19 30//30 
f 27//27 26//26 29//29 
f 30//30 25//25 28//28 
f 30//30 24//24 25//25 
f 29//29 26//26 23//23 
